# Blender 4.0.1
# www.blender.org
mtllib building_1_roof.mtl
g Plane.001_Plane.002
v -0.992530 3.994583 1.142492
v -0.992530 3.994583 -1.142492
v 0.992530 3.994583 1.142492
v -0.992530 4.028054 1.142492
v -0.992530 4.028054 -1.142492
v 0.992530 4.028054 1.142492
v -0.939470 4.066891 1.081415
v -0.939470 4.066891 -1.081415
v 0.939470 4.066891 1.081415
v 0.939470 4.066891 -1.081415
v 0.992530 4.028054 -1.142492
v 0.992530 3.994583 -1.142492
vn 1.0000 -0.0000 -0.0000
vn -0.0000 -0.0000 -1.0000
vn 0.5906 -0.8069 -0.0000
vn -0.0000 -0.8439 -0.5366
vn -0.0000 -1.0000 -0.0000
vn -0.5906 -0.8069 -0.0000
vn -0.0000 -0.8439 0.5366
vn -1.0000 -0.0000 -0.0000
vn -0.0000 -0.0000 1.0000
vt -1.784984 0.422043
vt 2.784984 0.422043
vt 2.784984 0.488985
vt -1.784984 0.488985
vt 2.485059 0.422043
vt -1.485059 0.422043
vt -1.485059 0.488985
vt 2.485059 0.488985
vt -1.485059 -1.784984
vt -1.485059 2.784984
vt -1.378939 2.662830
vt -1.378939 -1.662830
vt 2.485059 -1.784984
vt 2.378939 -1.662830
vt 2.378939 2.662830
vt 2.485059 2.784984
s 0
g Plane.001_Black_Nickel
usemtl Black_Nickel
f 1/1/1 2/2/1 5/3/1 4/4/1
f 3/5/2 1/6/2 4/7/2 6/8/2
f 4/9/3 5/10/3 8/11/3 7/12/3
f 6/13/4 4/9/4 7/12/4 9/14/4
f 8/11/5 10/15/5 9/14/5 7/12/5
f 11/16/6 6/13/6 9/14/6 10/15/6
f 5/10/7 11/16/7 10/15/7 8/11/7
f 12/2/8 3/1/8 6/4/8 11/3/8
f 2/6/9 12/5/9 11/8/9 5/7/9
