# Blender 4.0.1
# www.blender.org
mtllib build_test.mtl
o Plane.001
v -0.992530 3.994583 1.142492
v -0.992530 3.994583 -1.142492
v 0.992530 3.994583 1.142492
v -0.992530 4.028054 1.142492
v -0.992530 4.028054 -1.142492
v 0.992530 4.028054 1.142492
v -0.939470 4.066891 1.081415
v -0.939470 4.066891 -1.081415
v 0.939470 4.066891 1.081415
v 0.939470 4.066891 -1.081415
v 0.992530 4.028054 -1.142492
v 0.992530 3.994583 -1.142492
vn 1.0000 -0.0000 -0.0000
vn -0.0000 -0.0000 -1.0000
vn 0.5906 -0.8069 -0.0000
vn -0.0000 -0.8439 -0.5366
vn -0.0000 -1.0000 -0.0000
vn -0.5906 -0.8069 -0.0000
vn -0.0000 -0.8439 0.5366
vn -1.0000 -0.0000 -0.0000
vn -0.0000 -0.0000 1.0000
vt -0.642492 0.461021
vt 1.642492 0.461021
vt 1.642492 0.494493
vt -0.642492 0.494493
vt 1.492530 0.461021
vt -0.492530 0.461021
vt -0.492530 0.494493
vt 1.492530 0.494493
vt -0.492530 -0.642492
vt -0.492530 1.642492
vt -0.439470 1.581415
vt -0.439470 -0.581415
vt 1.492530 -0.642492
vt 1.439470 -0.581415
vt 1.439470 1.581415
vt 1.492530 1.642492
s 0
usemtl Black_Ceramic_Geometric_Tile
f 1/1/1 2/2/1 5/3/1 4/4/1
f 3/5/2 1/6/2 4/7/2 6/8/2
f 4/9/3 5/10/3 8/11/3 7/12/3
f 6/13/4 4/9/4 7/12/4 9/14/4
f 8/11/5 10/15/5 9/14/5 7/12/5
f 11/16/6 6/13/6 9/14/6 10/15/6
f 5/10/7 11/16/7 10/15/7 8/11/7
f 12/2/8 3/1/8 6/4/8 11/3/8
f 2/6/9 12/5/9 11/8/9 5/7/9
o Plane
v -1.000000 0.000000 1.144345
v 1.000000 0.000000 1.144345
v -1.000000 0.000000 -1.144345
v 1.000000 0.000000 -1.144345
v -1.000000 3.984628 -1.144345
v -1.000000 3.984628 1.144345
v 1.000000 3.984628 1.144345
v 1.000000 3.984628 -1.144345
vn -0.0000 -1.0000 -0.0000
vn -0.0000 1.0000 -0.0000
vn -0.0000 -0.0000 -1.0000
vn -0.0000 -0.0000 1.0000
vn 1.0000 -0.0000 -0.0000
vn -1.0000 -0.0000 -0.0000
vt -0.500000 -0.644345
vt -0.500000 1.644345
vt 1.500000 1.644345
vt 1.500000 -0.644345
vt 1.500000 -1.492314
vt -0.500000 -1.492314
vt -0.500000 2.492314
vt 1.500000 2.492314
vt -0.644345 -1.492314
vt 1.644345 -1.492314
vt 1.644345 2.492314
vt -0.644345 2.492314
s 0
usemtl PewDiePie_texture
f 13/17/10 15/18/10 16/19/10 14/20/10
f 18/17/11 19/20/11 20/19/11 17/18/11
f 16/21/12 15/22/12 17/23/12 20/24/12
f 13/22/13 14/21/13 19/24/13 18/23/13
f 14/25/14 16/26/14 20/27/14 19/28/14
f 15/26/15 13/25/15 18/28/15 17/27/15
