# Blender 4.0.1
# www.blender.org
mtllib circle.mtl
o Circle
v -0.000000 2.092159 0.260970
v -0.191900 2.073258 0.260893
v -0.376425 2.017284 0.260665
v -0.546484 1.926386 0.260294
v -0.695543 1.804058 0.259794
v -0.817872 1.655001 0.259186
v -0.908770 1.484943 0.258492
v -0.964745 1.300419 0.257739
v -0.983646 1.108521 0.256955
v -0.964745 0.916623 0.256172
v -0.908770 0.732099 0.255419
v -0.817872 0.562042 0.254724
v -0.695543 0.412984 0.254116
v -0.546484 0.290656 0.253617
v -0.376425 0.199759 0.253246
v -0.191900 0.143784 0.253017
v -0.000000 0.124884 0.252940
v 0.191900 0.143784 0.253017
v 0.376425 0.199759 0.253246
v 0.546484 0.290656 0.253617
v 0.695543 0.412984 0.254116
v 0.817872 0.562042 0.254724
v 0.908770 0.732099 0.255419
v 0.964745 0.916623 0.256172
v 0.983646 1.108521 0.256955
v 0.964745 1.300419 0.257739
v 0.908770 1.484943 0.258492
v 0.817872 1.655001 0.259186
v 0.695543 1.804058 0.259794
v 0.546484 1.926386 0.260294
v 0.376425 2.017284 0.260665
v 0.191900 2.073258 0.260893
v -0.000000 2.092159 0.448487
v -0.191900 2.073258 0.448410
v -0.376425 2.017284 0.448182
v -0.546484 1.926386 0.447811
v -0.695543 1.804058 0.447311
v -0.817872 1.655001 0.446703
v -0.908770 1.484943 0.446009
v -0.964745 1.300419 0.445255
v -0.983646 1.108521 0.444472
v -0.964745 0.916623 0.443689
v -0.908770 0.732099 0.442935
v -0.817872 0.562042 0.442241
v -0.695543 0.412984 0.441633
v -0.546484 0.290656 0.441133
v -0.376425 0.199759 0.440762
v -0.191900 0.143784 0.440534
v -0.000000 0.124884 0.440457
v 0.191900 0.143784 0.440534
v 0.376425 0.199759 0.440762
v 0.546484 0.290656 0.441133
v 0.695543 0.412984 0.441633
v 0.817872 0.562042 0.442241
v 0.908770 0.732099 0.442935
v 0.964745 0.916623 0.443689
v 0.983646 1.108521 0.444472
v 0.964745 1.300419 0.445255
v 0.908770 1.484943 0.446009
v 0.817872 1.655001 0.446703
v 0.695543 1.804058 0.447311
v 0.546484 1.926386 0.447811
v 0.376425 2.017284 0.448182
v 0.191900 2.073258 0.448410
vn 0.0980 0.9952 -0.0000
vn 0.4714 -0.8819 -0.0000
vn -0.4714 -0.8819 -0.0000
vn -0.0980 0.9952 -0.0000
vn 0.6344 -0.7730 -0.0000
vn -0.2903 -0.9569 -0.0000
vn -0.2903 0.9569 -0.0000
vn 0.7730 -0.6344 -0.0000
vn -0.0980 -0.9952 -0.0000
vn -0.4714 0.8819 -0.0000
vn 0.8819 -0.4714 -0.0000
vn -0.6344 0.7730 -0.0000
vn 0.9569 -0.2903 -0.0000
vn -0.7730 0.6344 -0.0000
vn 0.9952 -0.0980 -0.0000
vn -0.8819 0.4714 -0.0000
vn 0.9952 0.0980 -0.0000
vn -0.9569 0.2903 -0.0000
vn 0.9569 0.2903 -0.0000
vn -0.9952 0.0980 -0.0000
vn 0.8819 0.4714 -0.0000
vn -0.9952 -0.0980 -0.0000
vn 0.7730 0.6344 -0.0000
vn -0.9569 -0.2903 -0.0000
vn 0.6344 0.7730 -0.0000
vn -0.8819 -0.4714 -0.0000
vn 0.4714 0.8819 -0.0000
vn 0.0980 -0.9952 -0.0000
vn -0.7730 -0.6344 -0.0000
vn 0.2903 0.9569 -0.0000
vn 0.2903 -0.9569 -0.0000
vn -0.6344 -0.7730 -0.0000
vt 0.500000 0.541875
vt 0.417812 0.541842
vt 0.417812 0.461531
vt 0.500000 0.461564
vt 0.265949 0.538725
vt 0.338783 0.538567
vt 0.338783 0.458256
vt 0.265949 0.458415
vt 0.661217 0.538567
vt 0.734051 0.538725
vt 0.734051 0.458415
vt 0.661217 0.458256
vt 0.582188 0.541842
vt 0.582188 0.461531
vt 0.202110 0.538939
vt 0.202110 0.458629
vt 0.582188 0.538469
vt 0.582188 0.458158
vt 0.661217 0.541744
vt 0.661217 0.461434
vt 0.539200 0.734049
vt 0.538939 0.797888
vt 0.458629 0.797888
vt 0.458889 0.734049
vt 0.500000 0.538436
vt 0.500000 0.458125
vt 0.734051 0.541585
vt 0.734051 0.461275
vt 0.539497 0.661216
vt 0.459187 0.661216
vt 0.797890 0.541371
vt 0.797890 0.461061
vt 0.539820 0.582187
vt 0.459509 0.582187
vt 0.541111 0.265951
vt 0.541371 0.202112
vt 0.461061 0.202112
vt 0.460800 0.265951
vt 0.540155 0.500000
vt 0.459845 0.500000
vt 0.540813 0.338784
vt 0.460503 0.338784
vt 0.540491 0.417813
vt 0.460180 0.417813
vt 0.265949 0.541585
vt 0.202110 0.541371
vt 0.202110 0.461061
vt 0.265949 0.461275
vt 0.338783 0.541744
vt 0.338783 0.461434
vt 0.417812 0.538469
vt 0.417812 0.458158
vt 0.797890 0.538939
vt 0.797890 0.458629
s 0
usemtl Brown_Cardboard
f 17/1/1 16/2/1 48/3/1 49/4/1
f 4/5/2 3/6/2 35/7/2 36/8/2
f 31/9/3 30/10/3 62/11/3 63/12/3
f 18/13/4 17/1/4 49/4/4 50/14/4
f 5/15/5 4/5/5 36/8/5 37/16/5
f 32/17/6 31/9/6 63/12/6 64/18/6
f 19/19/7 18/13/7 50/14/7 51/20/7
f 6/21/8 5/22/8 37/23/8 38/24/8
f 1/25/9 32/17/9 64/18/9 33/26/9
f 20/27/10 19/19/10 51/20/10 52/28/10
f 7/29/11 6/21/11 38/24/11 39/30/11
f 21/31/12 20/27/12 52/28/12 53/32/12
f 8/33/13 7/29/13 39/30/13 40/34/13
f 22/35/14 21/36/14 53/37/14 54/38/14
f 9/39/15 8/33/15 40/34/15 41/40/15
f 23/41/16 22/35/16 54/38/16 55/42/16
f 10/43/17 9/39/17 41/40/17 42/44/17
f 24/43/18 23/41/18 55/42/18 56/44/18
f 11/41/19 10/43/19 42/44/19 43/42/19
f 25/39/20 24/43/20 56/44/20 57/40/20
f 12/35/21 11/41/21 43/42/21 44/38/21
f 26/33/22 25/39/22 57/40/22 58/34/22
f 13/36/23 12/35/23 44/38/23 45/37/23
f 27/29/24 26/33/24 58/34/24 59/30/24
f 14/45/25 13/46/25 45/47/25 46/48/25
f 28/21/26 27/29/26 59/30/26 60/24/26
f 15/49/27 14/45/27 46/48/27 47/50/27
f 2/51/28 1/25/28 33/26/28 34/52/28
f 29/22/29 28/21/29 60/24/29 61/23/29
f 16/2/30 15/49/30 47/50/30 48/3/30
f 3/6/31 2/51/31 34/52/31 35/7/31
f 30/10/32 29/53/32 61/54/32 62/11/32
