# Blender 4.0.1
# www.blender.org
mtllib ground.mtl
g Plane_Plane
v -25.000000 0.000000 25.000000
v 25.000000 0.000000 25.000000
v -25.000000 0.000000 -25.000000
v 25.000000 0.000000 -25.000000
v -25.000000 0.000638 25.000000
v 25.000000 0.000638 25.000000
v -25.000000 0.000638 -25.000000
v 25.000000 0.000638 -25.000000
vn -0.0000 -1.0000 -0.0000
vn -0.0000 1.0000 -0.0000
vn 1.0000 -0.0000 -0.0000
vn -1.0000 -0.0000 -0.0000
vn -0.0000 -0.0000 -1.0000
vn -0.0000 -0.0000 1.0000
vt -17.229359 -17.229359
vt -17.229359 18.229359
vt 18.229359 18.229359
vt 18.229359 -17.229359
s 0
g Plane_Asphalt_road_texture
usemtl Asphalt_road_texture
f 1/1/1 3/2/1 4/3/1 2/4/1
f 5/1/2 6/4/2 8/3/2 7/2/2
f 2/4/3 4/3/3 8/3/3 6/4/3
f 3/2/4 1/1/4 5/1/4 7/2/4
f 4/3/5 3/2/5 7/2/5 8/3/5
f 1/1/6 2/4/6 6/4/6 5/1/6
