# Blender 4.0.1
# www.blender.org
mtllib teava.mtl
o turela.002
v 0.000000 0.977442 -0.122450
v -0.027253 0.971655 -0.122205
v 0.027253 0.971655 -0.122205
v 0.000000 0.977442 1.642603
v -0.027253 0.971655 1.642849
v 0.027253 0.971655 1.642849
v 0.049793 0.955293 1.643542
v 0.063723 0.931186 1.644564
v 0.049793 0.955293 -0.121511
v 0.063723 0.931186 -0.120489
v 0.066636 0.903502 -0.119316
v 0.058026 0.877028 -0.118193
v 0.066636 0.903502 1.645738
v 0.058026 0.877028 1.646860
v 0.039383 0.856342 1.647737
v 0.013931 0.845020 1.648217
v 0.039383 0.856342 -0.117316
v 0.013931 0.845020 -0.116836
v -0.013931 0.845020 -0.116836
v -0.039383 0.856342 -0.117316
v -0.013931 0.845020 1.648217
v -0.039383 0.856342 1.647737
v -0.058026 0.877028 1.646860
v -0.066636 0.903502 1.645738
v -0.058026 0.877028 -0.118193
v -0.066636 0.903502 -0.119316
v -0.063724 0.931186 -0.120489
v -0.049793 0.955293 -0.121511
v -0.063724 0.931186 1.644564
v -0.049793 0.955293 1.643542
v 0.000000 0.996081 1.442897
v -0.056639 0.992227 1.442896
v -0.091643 0.939197 1.442807
v -0.091643 0.879644 1.442662
v -0.056639 0.827025 1.442519
v 0.000000 0.821940 1.442431
v 0.056639 0.827025 1.442432
v 0.091643 0.879644 1.442522
v 0.091643 0.939198 1.442666
v 0.056639 0.992227 1.442809
v 0.000000 0.996081 1.741817
v -0.056639 0.992227 1.741816
v -0.091643 0.939197 1.741727
v -0.091643 0.879644 1.741583
v -0.056639 0.827025 1.741439
v 0.000000 0.821940 1.741351
v 0.056639 0.827025 1.741352
v 0.091643 0.879644 1.741442
v 0.091643 0.939198 1.741586
v 0.056639 0.992227 1.741729
v 0.027253 0.971655 -0.122205
v -0.027253 0.971655 -0.122205
v 0.027253 0.971655 1.642849
v -0.027253 0.971655 1.642849
v -0.049793 0.955293 1.643542
v -0.063723 0.931186 1.644564
v -0.049793 0.955293 -0.121511
v -0.063723 0.931186 -0.120489
v -0.066636 0.903502 -0.119316
v -0.058026 0.877028 -0.118193
v -0.066636 0.903502 1.645738
v -0.058026 0.877028 1.646860
v -0.039383 0.856342 1.647737
v -0.013931 0.845020 1.648217
v -0.039383 0.856342 -0.117316
v -0.013931 0.845020 -0.116836
v 0.013931 0.845020 -0.116836
v 0.039383 0.856342 -0.117316
v 0.013931 0.845020 1.648217
v 0.039383 0.856342 1.647737
v 0.058026 0.877028 1.646860
v 0.066636 0.903502 1.645738
v 0.058026 0.877028 -0.118193
v 0.066636 0.903502 -0.119316
v 0.063724 0.931186 -0.120489
v 0.049793 0.955293 -0.121511
v 0.063724 0.931186 1.644564
v 0.049793 0.955293 1.643542
v 0.056639 0.992227 1.442896
v 0.091643 0.939197 1.442807
v 0.091643 0.879644 1.442662
v 0.056639 0.827025 1.442519
v -0.056639 0.827025 1.442432
v -0.091643 0.879644 1.442522
v -0.091643 0.939198 1.442666
v -0.056639 0.992227 1.442809
v 0.056639 0.992227 1.741816
v 0.091643 0.939197 1.741727
v 0.091643 0.879644 1.741583
v 0.056639 0.827025 1.741439
v -0.056639 0.827025 1.741352
v -0.091643 0.879644 1.741442
v -0.091643 0.939198 1.741586
v -0.056639 0.992227 1.741729
vn -0.2077 0.9782 -0.0000
vn 0.2077 0.9782 -0.0000
vn -0.0000 0.0424 0.9991
vn 0.5874 0.8093 -0.0000
vn 0.8658 0.5003 -0.0000
vn 0.9945 0.1046 -0.0000
vn 0.9510 -0.3093 -0.0000
vn 0.7428 -0.6695 -0.0000
vn 0.4064 -0.9137 -0.0000
vn -0.0000 -1.0000 -0.0000
vn -0.4064 -0.9137 -0.0000
vn -0.7428 -0.6695 -0.0000
vn -0.9510 -0.3093 -0.0000
vn -0.9945 0.1046 -0.0000
vn -0.8658 0.5003 -0.0000
vn -0.5874 0.8093 -0.0000
vn 1.0000 -0.0000 -0.0000
vn -0.0894 -0.9960 -0.0000
vn -0.8346 0.5509 -0.0000
vn 0.8346 0.5509 -0.0000
vn 0.0894 -0.9960 -0.0000
vn -1.0000 -0.0000 -0.0000
vn 0.0679 0.9977 -0.0000
vn 0.8326 -0.5539 -0.0000
vn -0.8326 -0.5539 -0.0000
vn -0.0679 0.9977 -0.0000
vn 0.0008 -0.0024 1.0000
vn 0.2736 -0.1802 -0.9448
vn -0.0008 -0.0024 1.0000
vn -0.2736 -0.1802 -0.9448
vt 0.499816 1.773229
vt 0.472564 1.772983
vt 0.472564 0.007930
vt 0.499816 0.008175
vt 0.527069 1.772983
vt 0.527069 0.007930
vt 0.472564 0.561885
vt 0.450023 0.545523
vt 0.436093 0.521416
vt 0.433180 0.493732
vt 0.441790 0.467258
vt 0.460433 0.446572
vt 0.485885 0.435250
vt 0.513747 0.435250
vt 0.539199 0.446572
vt 0.557842 0.467258
vt 0.566452 0.493732
vt 0.563540 0.521416
vt 0.549609 0.545523
vt 0.527069 0.561885
vt 0.499816 0.567673
vt 0.549609 1.772290
vt 0.549609 0.007236
vt 1.771268 0.521416
vt 1.772290 0.545523
vt 0.007236 0.545523
vt 0.006214 0.521416
vt 1.770094 0.493732
vt 0.005041 0.493732
vt 1.768972 0.467258
vt 0.003918 0.467258
vt 1.768095 0.446572
vt 0.003041 0.446572
vt 0.513747 1.767615
vt 0.539199 1.768095
vt 0.539199 0.003041
vt 0.513747 0.002561
vt 0.485885 1.767615
vt 0.485885 0.002561
vt 0.460433 1.768095
vt 0.460433 0.003041
vt 0.450023 1.772290
vt 0.450023 0.007236
vt 0.208257 0.469875
vt 0.208113 0.529428
vt -0.090807 0.529428
vt -0.090663 0.469875
vt 0.443177 0.208260
vt 0.499816 0.208348
vt 0.499816 -0.090572
vt 0.443177 -0.090661
vt 0.207882 0.582457
vt 0.207972 0.529428
vt -0.090948 0.529428
vt -0.091038 0.582457
vt 0.207969 0.582457
vt -0.090951 0.582457
vt 0.556455 0.208347
vt 0.556455 -0.090574
vt 0.208116 0.469874
vt -0.090804 0.469874
vt 0.556455 0.207969
vt 0.499816 0.207881
vt 0.499816 -0.091039
vt 0.556455 -0.090951
vt 0.208347 0.417256
vt -0.090574 0.417256
vt 0.208260 0.417256
vt -0.090661 0.417256
vt 0.443177 0.207882
vt 0.443177 -0.091038
vt 0.443177 0.582457
vt 0.408173 0.529428
vt 0.408173 0.469874
vt 0.443177 0.417256
vt 0.499816 0.412171
vt 0.556455 0.417256
vt 0.591459 0.469875
vt 0.591459 0.529428
vt 0.556455 0.582457
vt 0.499816 0.586311
s 0
usemtl Steel_Satin_metal
f 1/1/1 2/2/1 5/3/1 4/4/1
f 3/5/2 1/1/2 4/4/2 6/6/2
f 5/7/3 30/8/3 29/9/3 24/10/3 23/11/3 22/12/3 21/13/3 16/14/3 15/15/3 14/16/3 13/17/3 8/18/3 7/19/3 6/20/3 4/21/3
f 9/22/4 3/5/4 6/6/4 7/23/4
f 10/24/5 9/25/5 7/26/5 8/27/5
f 11/28/6 10/24/6 8/27/6 13/29/6
f 12/30/7 11/28/7 13/29/7 14/31/7
f 17/32/8 12/30/8 14/31/8 15/33/8
f 18/34/9 17/35/9 15/36/9 16/37/9
f 19/38/10 18/34/10 16/37/10 21/39/10
f 20/40/11 19/38/11 21/39/11 22/41/11
f 25/30/12 20/32/12 22/33/12 23/31/12
f 26/28/13 25/30/13 23/31/13 24/29/13
f 27/24/14 26/28/14 24/29/14 29/27/14
f 28/25/15 27/24/15 29/27/15 30/26/15
f 2/2/16 28/42/16 30/43/16 5/3/16
f 38/44/17 39/45/17 49/46/17 48/47/17
f 35/48/18 36/49/18 46/50/18 45/51/18
f 32/52/19 33/53/19 43/54/19 42/55/19
f 39/45/20 40/56/20 50/57/20 49/46/20
f 36/49/21 37/58/21 47/59/21 46/50/21
f 33/53/22 34/60/22 44/61/22 43/54/22
f 40/62/23 31/63/23 41/64/23 50/65/23
f 37/66/24 38/44/24 48/47/24 47/67/24
f 34/60/25 35/68/25 45/69/25 44/61/25
f 31/63/26 32/70/26 42/71/26 41/64/26
f 42/72/27 43/73/27 44/74/27 45/75/27 46/76/27 47/77/27 48/78/27 49/79/27 50/80/27 41/81/27
f 33/73/28 32/72/28 31/81/28 40/80/28 39/79/28 38/78/28 47/77/28 37/77/28 36/76/28 35/75/28 34/74/28
f 1/1/2 4/4/2 53/3/2 51/2/2
f 52/5/1 54/6/1 4/4/1 1/1/1
f 53/7/3 4/21/3 54/20/3 55/19/3 56/18/3 61/17/3 62/16/3 63/15/3 64/14/3 69/13/3 70/12/3 71/11/3 72/10/3 77/9/3 78/8/3
f 57/22/16 55/23/16 54/6/16 52/5/16
f 58/24/15 56/27/15 55/26/15 57/25/15
f 59/28/14 61/29/14 56/27/14 58/24/14
f 60/30/13 62/31/13 61/29/13 59/28/13
f 65/32/12 63/33/12 62/31/12 60/30/12
f 66/34/11 64/37/11 63/36/11 65/35/11
f 67/38/10 69/39/10 64/37/10 66/34/10
f 68/40/9 70/41/9 69/39/9 67/38/9
f 73/30/8 71/31/8 70/33/8 68/32/8
f 74/28/7 72/29/7 71/31/7 73/30/7
f 75/24/6 77/27/6 72/29/6 74/28/6
f 76/25/5 78/26/5 77/27/5 75/24/5
f 51/2/4 53/3/4 78/43/4 76/42/4
f 84/44/22 92/47/22 93/46/22 85/45/22
f 82/48/21 90/51/21 46/50/21 36/49/21
f 79/52/20 87/55/20 88/54/20 80/53/20
f 85/45/19 93/46/19 94/57/19 86/56/19
f 36/49/18 46/50/18 91/59/18 83/58/18
f 80/53/17 88/54/17 89/61/17 81/60/17
f 86/62/26 94/65/26 41/64/26 31/63/26
f 83/66/25 91/67/25 92/47/25 84/44/25
f 81/60/24 89/61/24 90/69/24 82/68/24
f 31/63/23 41/64/23 87/71/23 79/70/23
f 87/72/29 41/81/29 94/80/29 93/79/29 92/78/29 91/77/29 46/76/29 90/75/29 89/74/29 88/73/29
f 80/73/30 81/74/30 82/75/30 36/76/30 83/77/30 91/77/30 84/78/30 85/79/30 86/80/30 31/81/30 79/72/30
