# Blender 4.0.1
# www.blender.org
mtllib turela.mtl
o turela.001
v -0.213428 1.060580 -0.176063
v -0.213428 1.060580 -0.602919
v 0.213428 1.060580 -0.176063
v -0.213457 1.060553 -0.176034
v -0.262605 1.013911 -0.211953
v -0.177538 1.013911 -0.126886
v -0.188551 0.803542 -0.115872
v 0.177538 1.013911 -0.126886
v 0.213457 1.060553 -0.176034
v 0.262605 1.013911 -0.211953
v 0.188551 0.803542 -0.115872
v 0.273619 0.803542 -0.200939
v 0.273619 0.803542 -0.578042
v 0.188551 0.803542 -0.663110
v 0.262605 1.013911 -0.567028
v 0.213457 1.060553 -0.602948
v 0.177538 1.013911 -0.652096
v -0.177538 1.013911 -0.652096
v -0.213457 1.060553 -0.602948
v -0.262605 1.013911 -0.567028
v -0.188551 0.803542 -0.663110
v -0.273619 0.803542 -0.578042
v -0.273619 0.803542 -0.200939
v 0.213428 1.060580 -0.602919
v 0.213428 1.060580 -0.176063
v 0.213428 1.060580 -0.602919
v -0.213428 1.060580 -0.176063
v 0.213457 1.060553 -0.176034
v 0.262605 1.013911 -0.211953
v 0.177538 1.013911 -0.126886
v 0.188551 0.803542 -0.115872
v -0.177538 1.013911 -0.126886
v -0.213457 1.060553 -0.176034
v -0.262605 1.013911 -0.211953
v -0.188551 0.803542 -0.115872
v -0.273619 0.803542 -0.200939
v -0.273619 0.803542 -0.578042
v -0.188551 0.803542 -0.663110
v -0.262605 1.013911 -0.567028
v -0.213457 1.060553 -0.602948
v -0.177538 1.013911 -0.652096
v 0.177538 1.013911 -0.652096
v 0.213457 1.060553 -0.602948
v 0.262605 1.013911 -0.567028
v 0.188551 0.803542 -0.663110
v 0.273619 0.803542 -0.578042
v 0.273619 0.803542 -0.200939
v -0.213428 1.060580 -0.602919
vn -0.0000 1.0000 -0.0000
vn -0.6884 0.7254 -0.0000
vn -0.0000 0.7254 0.6884
vn -0.6933 0.1966 0.6933
vn -0.7052 0.0738 0.7052
vn -0.0000 0.0523 0.9986
vn 0.6933 0.1966 0.6933
vn 0.7052 0.0738 0.7052
vn 0.9986 0.0523 -0.0000
vn 0.7052 0.0738 -0.7052
vn 0.6933 0.1966 -0.6933
vn 0.6884 0.7254 -0.0000
vn -0.0000 0.7254 -0.6884
vn -0.0000 0.0523 -0.9986
vn -0.6933 0.1966 -0.6933
vn -0.7052 0.0738 -0.7052
vn -0.9986 0.0523 -0.0000
vt 0.393286 0.606714
vt 0.393286 0.393286
vt 0.606714 0.393286
vt 0.606714 0.606714
vt 0.393271 0.606729
vt 0.368697 0.588769
vt 0.368697 0.411231
vt 0.393271 0.393271
vt 0.411231 0.368697
vt 0.588769 0.368697
vt 0.606729 0.393271
vt 0.368697 0.517888
vt 0.411231 0.517888
vt 0.393271 0.541209
vt 0.363190 0.412704
vt 0.405724 0.412704
vt 0.594276 0.412704
vt 0.588769 0.517888
vt 0.631303 0.517888
vt 0.606729 0.541209
vt 0.636810 0.412704
vt 0.594276 0.412704
vt 0.411231 0.517888
vt 0.631303 0.517888
vt 0.588769 0.517888
vt 0.631303 0.411231
vt 0.631303 0.588769
vt 0.606729 0.606729
vt 0.588769 0.631303
vt 0.411231 0.631303
s 0
usemtl Sci-Fi_Panel_13
f 2/1/1 1/2/1 3/3/1 24/4/1
f 19/5/2 20/6/2 5/7/2 4/8/2 1/2/2 2/1/2
f 4/8/3 6/9/3 8/10/3 9/11/3 3/3/3 1/2/3
f 5/12/4 6/13/4 4/14/4
f 5/12/5 23/15/5 7/16/5 6/13/5
f 7/16/6 11/17/6 8/18/6 6/13/6
f 8/18/7 10/19/7 9/20/7
f 12/21/8 10/19/8 8/18/8 11/17/8
f 12/16/9 13/22/9 15/18/9 10/23/9
f 14/21/10 17/24/10 15/18/10 13/22/10
f 15/19/11 17/25/11 16/20/11
f 9/11/12 10/26/12 15/27/12 16/28/12 24/4/12 3/3/12
f 16/28/13 17/29/13 18/30/13 19/5/13 2/1/13 24/4/13
f 14/17/14 21/16/14 18/13/14 17/25/14
f 18/13/15 20/12/15 19/14/15
f 18/24/16 21/21/16 22/22/16 20/18/16
f 22/22/17 23/16/17 5/23/17 20/18/17
f 26/1/1 48/4/1 27/3/1 25/2/1
f 43/5/12 26/1/12 25/2/12 28/8/12 29/7/12 44/6/12
f 28/8/3 25/2/3 27/3/3 33/11/3 32/10/3 30/9/3
f 29/12/7 28/14/7 30/13/7
f 29/12/8 30/13/8 31/16/8 47/15/8
f 31/16/6 30/13/6 32/18/6 35/17/6
f 32/18/4 33/20/4 34/19/4
f 36/21/5 35/17/5 32/18/5 34/19/5
f 36/16/17 34/23/17 39/18/17 37/22/17
f 38/21/16 37/22/16 39/18/16 41/24/16
f 39/19/15 40/20/15 41/25/15
f 33/11/2 27/3/2 48/4/2 40/28/2 39/27/2 34/26/2
f 40/28/13 48/4/13 26/1/13 43/5/13 42/30/13 41/29/13
f 38/17/14 41/25/14 42/13/14 45/16/14
f 42/13/11 43/14/11 44/12/11
f 42/24/10 44/18/10 46/22/10 45/21/10
f 46/22/9 44/18/9 29/23/9 47/16/9
